 <svg version="1.0" xmlns="http://www.w3.org/2000/svg"
 width="1280.000000pt" height="904.000000pt" viewBox="0 0 1280.000000 904.000000"
 preserveAspectRatio="xMidYMid meet"><g transform="translate(0.000000,904.000000) scale(0.100000,-0.100000)"
fill="#000000" stroke="none">
<path d="M6509 7652 c-9 -4 -61 -49 -115 -100 -124 -118 -126 -128 -37 -228
629 -710 729 -1733 250 -2547 -64 -107 -177 -262 -260 -355 -40 -44 -57 -71
-57 -90 0 -34 -4 -29 111 -139 121 -116 132 -118 211 -35 30 31 83 93 117 137
280 353 456 760 528 1225 22 143 25 546 5 685 -60 415 -188 755 -407 1085
-126 190 -296 381 -328 369 -1 0 -9 -3 -18 -7z"/>
<path d="M6023 7201 c-32 -27 -82 -71 -112 -98 -74 -67 -73 -86 8 -184 171
-203 291 -451 348 -719 26 -121 26 -467 0 -593 -52 -259 -174 -508 -352 -720
-36 -43 -65 -85 -65 -93 0 -28 19 -51 120 -143 121 -110 133 -112 198 -43 70
74 184 231 240 329 401 699 334 1552 -170 2185 -76 96 -111 128 -139 128 -10
0 -44 -22 -76 -49z"/>
<path d="M5530 6745 c-136 -119 -136 -119 -46 -239 76 -100 124 -195 162 -321
26 -83 28 -103 27 -255 0 -150 -2 -173 -27 -254 -35 -115 -101 -242 -171 -330
-62 -79 -70 -97 -55 -125 17 -32 203 -189 234 -197 24 -6 34 0 77 45 144 149
265 408 305 650 22 137 15 387 -15 507 -55 222 -166 439 -294 577 -53 57 -69
52 -197 -58z"/>
<path d="M4024 6651 c-307 -83 -600 -406 -777 -858 -152 -384 -231 -859 -243
-1458 -20 -922 133 -1653 443 -2118 74 -112 216 -265 311 -336 152 -114 363
-182 428 -137 17 12 22 12 39 0 28 -21 382 -20 454 2 71 21 125 72 151 143
l21 56 70 2 c172 4 340 97 436 242 38 57 73 153 73 201 0 27 1 28 78 34 43 4
107 13 142 20 36 8 65 13 66 12 0 0 -3 -46 -8 -101 -14 -158 8 -255 72 -309
87 -73 191 -1 380 264 29 41 68 92 86 112 38 43 32 52 59 -83 36 -180 77 -256
159 -298 63 -32 166 -34 241 -4 62 24 181 104 254 169 47 43 54 46 48 24 -4
-14 -12 -66 -19 -116 -20 -153 15 -250 107 -294 55 -27 108 -22 171 15 78 46
92 123 33 189 l-28 33 14 99 c14 94 48 244 66 290 7 19 18 22 96 28 48 4 101
9 116 12 l28 6 -20 -40 c-11 -22 -30 -76 -42 -118 -52 -190 9 -366 140 -405
81 -24 232 34 356 138 l69 59 49 -33 c64 -43 117 -57 197 -50 78 6 155 35 231
86 l57 38 21 -52 c30 -73 82 -129 149 -162 51 -25 67 -28 152 -27 168 1 311
67 512 233 54 45 99 81 101 81 2 0 1 -15 -1 -32 -5 -50 24 -175 53 -224 46
-78 156 -123 257 -104 90 17 174 66 260 150 116 114 147 204 93 268 -53 63
-126 49 -228 -44 -34 -31 -79 -65 -99 -75 l-38 -19 0 50 c0 27 11 103 25 167
14 65 28 130 31 145 7 32 7 32 240 52 98 9 162 20 183 30 87 45 96 183 15 226
-20 11 -65 15 -176 15 -94 0 -147 4 -145 10 1 6 13 43 26 83 28 89 23 132 -23
178 -60 60 -161 55 -210 -9 -14 -18 -43 -85 -65 -148 -22 -63 -43 -122 -46
-131 -6 -15 -20 -18 -86 -18 -46 0 -94 -6 -114 -14 -80 -34 -88 -157 -15 -226
l30 -28 -88 -79 c-187 -171 -321 -251 -438 -261 -54 -4 -68 -2 -85 14 -18 16
-20 26 -14 74 9 70 38 159 74 222 l28 49 26 -44 c47 -80 133 -98 191 -40 40
40 61 122 46 183 -14 57 -67 150 -113 198 -98 102 -242 32 -394 -193 -46 -67
-204 -226 -273 -272 -56 -38 -114 -63 -146 -63 -18 0 -29 9 -41 36 -17 35 -17
40 10 168 26 125 26 135 12 182 -8 27 -30 68 -50 91 -28 33 -46 44 -89 54 -87
19 -182 9 -258 -29 -36 -17 -79 -32 -96 -32 -16 0 -72 -9 -123 -19 -52 -11
-132 -22 -179 -26 -47 -3 -96 -8 -108 -11 -28 -6 -28 -6 24 180 19 66 34 138
34 161 0 106 -97 172 -194 131 -45 -19 -72 -60 -90 -137 -83 -356 -87 -369
-115 -369 -82 -1 -212 -20 -234 -35 -52 -34 -61 -128 -18 -186 l21 -28 -53
-46 c-61 -55 -143 -105 -174 -105 -26 0 -39 35 -48 135 -22 237 -93 338 -235
338 -93 0 -181 -49 -256 -141 -47 -58 -49 -58 -34 3 16 65 2 125 -37 164 -31
31 -37 33 -88 29 -39 -3 -62 -11 -79 -28 -33 -30 -230 -89 -334 -98 l-82 -8
-65 57 c-37 33 -78 60 -97 64 -18 4 -41 15 -51 23 -28 24 -120 21 -180 -6 -27
-12 -81 -53 -120 -91 l-72 -69 -2 186 c-3 183 -3 188 -30 242 -21 40 -41 62
-77 85 l-49 30 -225 3 c-194 3 -227 1 -242 -13 -16 -14 -18 -14 -23 0 -4 10
-19 15 -44 15 -114 0 -180 139 -220 463 -26 207 -25 856 1 1041 23 164 47 258
85 334 34 68 62 92 106 92 16 0 42 7 58 14 23 13 31 13 55 0 33 -17 317 -20
407 -3 79 14 138 56 173 122 l27 52 0 565 c0 632 2 614 -71 686 -66 66 -112
76 -343 72 -163 -3 -193 -5 -207 -20 -16 -15 -19 -16 -29 -2 -17 24 -92 26
-171 5z m4013 -4112 c-9 -71 -47 -150 -103 -210 -48 -50 -130 -107 -140 -96
-9 9 15 75 54 152 36 69 156 205 182 205 9 0 11 -14 7 -51z m-2878 22 c19 -12
8 -100 -21 -178 -28 -76 -101 -153 -146 -153 -30 0 -31 1 -25 38 13 99 75 235
125 278 32 26 45 29 67 15z"/>
<path d="M5125 6364 c-131 -108 -145 -122 -145 -150 0 -14 9 -39 20 -55 83
-116 87 -276 10 -387 -45 -64 -40 -91 23 -144 142 -121 167 -138 202 -138 28
0 39 7 69 49 45 62 90 157 113 241 24 87 23 270 -1 360 -23 84 -78 197 -122
249 -50 58 -71 55 -169 -25z"/>
</g>
</svg>
